<svg version="1.1" width="5017.333333" height="1409.333333" viewBox="0.000000 0.000000 3763.000000 965.000000" xmlns="http://www.w3.org/2000/svg" xmlns:xlink="http://www.w3.org/1999/xlink" overflow="hidden"><defs><clipPath id="_clipPath_jevwNuK77oP2IeIhmRpGFvCCVLnbQz6j"><rect x="0.000000" y="0.000000" width="3763.000000" height="1057.000000"/></clipPath></defs><g clip-path="url(#_clipPath_jevwNuK77oP2IeIhmRpGFvCCVLnbQz6j)"><path d=" M 2260.000000 318.500000 L 2260.000000 637.000000 L 2324.500000 637.000000 L 2389.000000 637.000000 L 2389.000000 504.500000 L 2389.000000 372.000000 L 2476.500000 372.000000 L 2564.000000 372.000000 L 2564.000000 322.500000 L 2564.000000 273.000000 L 2476.500000 273.000000 L 2389.000000 273.000000 L 2389.000000 186.000000 L 2389.000000 99.000000 L 2492.500000 99.000000 L 2596.000000 99.000000 L 2596.000000 49.500000 L 2596.000000 0.000000 L 2428.000000 0.000000 L 2260.000000 0.000000 L 2260.000000 318.500000 Z" fill="#00C6FF"/><path d=" M 0.000000 181.000000 L 326.500000 507.500000 C 458.566681 367.933990 524.733337 298.151001 525.000000 298.151001 C 525.266663 298.151001 525.266663 393.433990 525.000000 584.000000 C 393.066681 716.333313 326.899994 782.500000 326.500000 782.500000 C 326.100006 782.500000 259.933319 716.333313 128.000000 584.000000 L 128.000000 380.500000 L 0.000000 380.500000 L 0.000000 637.000000 C 212.500000 854.533325 318.916656 963.366638 319.250000 963.500000 C 319.583344 963.633362 430.833344 854.799988 653.000000 637.000000 L 653.000000 0.000000 L 326.500000 326.500000 L 0.000000 0.000000 L 0.000000 181.000000 Z" fill="#00C6FF"/><path d=" M 1902.000000 105.000000 L 1902.000000 163.000000 L 1867.500000 163.000000 L 1833.000000 163.000000 L 1833.000000 208.000000 L 1833.000000 253.000000 L 1867.400024 253.000000 L 1901.900024 253.000000 L 1902.300049 386.200012 C 1902.699951 531.799988 1902.500000 528.000000 1908.599976 552.799988 C 1920.500000 601.299988 1950.199951 630.700012 1998.199951 641.400024 C 2032.099976 648.900024 2071.300049 646.799988 2108.800049 635.400024 C 2116.399902 633.099976 2117.000000 632.799988 2117.000000 630.200012 C 2117.000000 628.700012 2114.699951 607.900024 2112.000000 584.000000 C 2109.300049 560.099976 2107.000000 540.200012 2107.000000 539.900024 C 2107.000000 539.599976 2103.500000 540.200012 2099.300049 541.200012 C 2094.600098 542.400024 2086.300049 543.400024 2078.300049 543.700012 C 2066.800049 544.200012 2064.399902 544.000000 2058.300049 542.099976 C 2041.099976 536.799988 2033.099976 524.900024 2031.000000 501.500000 C 2030.500000 496.000000 2030.099976 437.799988 2030.000000 372.200012 L 2030.000000 253.000000 L 2070.000000 253.000000 L 2110.000000 253.000000 L 2110.000000 208.000000 L 2110.000000 163.000000 L 2070.000000 163.000000 L 2030.000000 163.000000 L 2030.000000 105.000000 L 2030.000000 47.000000 L 1966.000000 47.000000 L 1902.000000 47.000000 L 1902.000000 105.000000 Z" fill="#00C6FF"/><path d=" M 991.500000 154.699997 C 932.799988 158.699997 884.000000 183.199997 849.599976 226.000000 C 822.500000 259.700012 806.599976 297.600006 798.799988 347.000000 C 796.799988 360.299988 796.599976 364.899994 796.500000 403.000000 C 796.500000 437.399994 796.799988 446.399994 798.200012 455.700012 C 806.599976 510.600006 827.099976 553.200012 861.700012 587.700012 C 892.799988 618.599976 932.000000 636.700012 983.000000 643.599976 C 1000.299988 646.000000 1041.800049 646.000000 1062.500000 643.599976 C 1091.699951 640.299988 1119.199951 633.599976 1144.900024 623.599976 C 1166.900024 615.000000 1190.800049 602.200012 1200.300049 593.799988 L 1204.099976 590.500000 L 1186.900024 551.500000 C 1177.500000 530.000000 1169.599976 512.299988 1169.400024 512.099976 C 1169.199951 511.799988 1161.400024 515.299988 1152.199951 519.799988 C 1116.800049 537.000000 1094.099976 543.400024 1059.000000 546.000000 C 1017.400024 549.099976 989.700012 543.700012 968.900024 528.400024 C 952.400024 516.299988 937.599976 492.600006 931.500000 468.200012 C 928.799988 457.200012 926.500000 440.899994 927.299988 438.500000 C 927.900024 437.200012 942.599976 437.000000 1069.000000 437.000000 L 1210.000000 437.000000 L 1210.000000 396.600006 C 1210.000000 354.000000 1209.199951 338.200012 1206.000000 318.100006 C 1191.699951 229.800003 1138.199951 171.699997 1058.400024 158.000000 C 1038.599976 154.600006 1012.099976 153.300003 991.500000 154.699997 Z M 1032.000000 255.699997 C 1056.000000 260.500000 1072.099976 277.299988 1079.400024 305.000000 C 1082.400024 316.200012 1084.000000 329.000000 1084.000000 341.700012 L 1084.000000 351.000000 L 1006.500000 351.000000 L 929.000000 351.000000 L 929.000000 347.399994 C 929.000000 341.799988 933.700012 320.100006 936.599976 311.799988 C 942.299988 296.000000 950.500000 282.399994 960.000000 273.100006 C 977.099976 256.399994 1003.700012 249.899994 1032.000000 255.699997 Z" fill="#00C6FF"/><path d=" M 1518.000000 155.000000 C 1459.900024 160.500000 1414.099976 184.000000 1380.900024 225.300003 C 1351.500000 261.700012 1335.000000 302.700012 1328.300049 356.100006 C 1325.900024 375.399994 1325.900024 433.200012 1328.300049 451.299988 C 1333.300049 488.899994 1344.300049 521.200012 1361.199951 548.500000 C 1395.099976 603.099976 1445.500000 634.599976 1513.099976 643.400024 C 1547.900024 648.000000 1593.400024 645.599976 1631.000000 637.400024 C 1646.500000 633.900024 1675.099976 624.299988 1690.599976 617.299988 C 1708.800049 609.200012 1736.000000 592.400024 1734.599976 590.200012 C 1734.400024 589.799988 1726.699951 572.400024 1717.500000 551.500000 C 1708.400024 530.599976 1700.500000 513.099976 1700.000000 512.599976 C 1699.400024 512.099976 1693.900024 514.400024 1686.300049 518.200012 C 1669.099976 527.099976 1647.800049 535.400024 1631.699951 539.500000 C 1611.500000 544.599976 1596.199951 546.299988 1569.500000 546.400024 C 1543.800049 546.400024 1535.000000 545.200012 1519.300049 539.099976 C 1488.199951 527.000000 1466.699951 497.000000 1459.500000 455.600006 C 1458.699951 450.700012 1458.000000 444.500000 1458.000000 441.899994 L 1458.000000 437.000000 L 1599.599976 437.000000 L 1741.300049 437.000000 L 1740.699951 390.200012 C 1740.300049 356.700012 1739.699951 340.000000 1738.599976 331.100006 C 1731.500000 275.399994 1712.099976 233.199997 1678.800049 201.500000 C 1652.699951 176.500000 1618.500000 161.399994 1576.000000 156.000000 C 1564.400024 154.500000 1529.599976 153.899994 1518.000000 155.000000 Z M 1565.000000 256.200012 C 1584.500000 261.000000 1597.699951 272.799988 1605.900024 292.500000 C 1611.400024 305.700012 1615.000000 326.299988 1615.000000 345.200012 L 1615.000000 351.000000 L 1537.599976 351.000000 C 1492.500000 351.000000 1459.900024 350.600006 1459.599976 350.100006 C 1459.300049 349.600006 1459.900024 344.100006 1461.000000 337.799988 C 1470.900024 279.899994 1501.199951 251.000000 1549.000000 253.800003 C 1553.699951 254.100006 1560.900024 255.100006 1565.000000 256.200012 Z" fill="#00C6FF"/><path d=" M 2867.500000 155.000000 C 2836.000000 157.800003 2809.100098 165.199997 2784.000000 178.100006 C 2767.000000 186.899994 2754.600098 195.699997 2740.699951 208.899994 C 2701.100098 246.899994 2678.100098 296.700012 2670.899902 360.000000 C 2668.899902 377.000000 2669.199951 426.899994 2671.300049 443.899994 C 2675.600098 477.899994 2683.199951 504.399994 2696.199951 530.500000 C 2720.100098 578.599976 2758.199951 613.799988 2805.100098 631.299988 C 2857.899902 651.099976 2932.399902 650.500000 2984.300049 629.900024 C 3024.899902 613.799988 3057.800049 585.000000 3081.899902 544.500000 C 3097.800049 517.799988 3108.000000 487.399994 3113.699951 449.500000 C 3115.199951 439.500000 3115.500000 431.200012 3115.500000 399.500000 C 3115.399902 365.100006 3115.199951 360.200012 3113.199951 347.100006 C 3107.100098 308.600006 3094.699951 274.799988 3076.300049 247.000000 C 3041.600098 194.500000 2993.699951 165.000000 2929.500000 156.500000 C 2915.199951 154.600006 2881.500000 153.800003 2867.500000 155.000000 Z M 2912.500000 255.600006 C 2946.300049 262.000000 2968.800049 287.799988 2980.500000 333.500000 C 2990.399902 372.200012 2990.399902 428.899994 2980.399902 468.399994 C 2973.000000 498.000000 2958.600098 521.799988 2941.199951 533.299988 C 2926.500000 543.099976 2913.300049 546.599976 2891.500000 546.400024 C 2873.699951 546.299988 2865.399902 544.400024 2851.399902 537.500000 C 2828.899902 526.500000 2813.399902 503.500000 2804.600098 468.200012 C 2796.500000 435.700012 2795.000000 385.899994 2801.100098 349.899994 C 2805.100098 326.000000 2814.899902 300.399994 2825.500000 285.500000 C 2843.899902 259.700012 2875.899902 248.699997 2912.500000 255.600006 Z" fill="#00C6FF"/><path d=" M 3211.899902 164.699997 C 3212.399902 165.699997 3244.500000 218.399994 3283.300049 281.799988 L 3353.800049 397.100006 L 3291.800049 497.799988 C 3257.600098 553.200012 3224.899902 606.400024 3218.899902 616.000000 C 3213.000000 625.700012 3207.800049 634.299988 3207.399902 635.299988 C 3206.800049 636.900024 3211.000000 637.000000 3279.399902 636.799988 L 3352.100098 636.500000 L 3390.199951 559.200012 C 3411.199951 516.799988 3428.600098 482.000000 3428.899902 482.000000 C 3429.300049 482.000000 3446.699951 516.799988 3467.600098 559.200012 L 3505.600098 636.500000 L 3577.899902 636.799988 C 3646.500000 637.000000 3650.199951 636.900024 3649.800049 635.299988 C 3649.500000 634.299988 3616.600098 580.400024 3576.600098 515.599976 C 3515.199951 416.000000 3504.000000 397.299988 3504.800049 395.600006 C 3505.300049 394.399994 3536.500000 343.100006 3574.000000 281.500000 C 3611.500000 219.899994 3643.100098 168.000000 3644.199951 166.199997 L 3646.199951 163.000000 L 3573.300049 163.000000 L 3500.399902 163.000000 L 3464.399902 237.699997 C 3444.600098 278.799988 3427.899902 312.500000 3427.300049 312.700012 C 3426.800049 312.899994 3410.399902 279.299988 3390.899902 238.000000 L 3355.600098 163.000000 L 3283.300049 163.000000 C 3214.699951 163.000000 3211.000000 163.100006 3211.899902 164.699997 Z" fill="#00C6FF"/></g></svg>